<mxfile host="app.diagrams.net" modified="2024-02-09T13:01:30.091Z" agent="Mozilla/5.0 (Windows NT 10.0; Win64; x64) AppleWebKit/537.36 (KHTML, like Gecko) Chrome/121.0.0.0 Safari/537.36" etag="vkxekCeNpx2O-AyxWidP" version="23.1.2" type="device">
  <diagram id="C5RBs43oDa-KdzZeNtuy" name="Page-1">
    <mxGraphModel dx="4200" dy="2088" grid="1" gridSize="10" guides="1" tooltips="1" connect="1" arrows="1" fold="1" page="1" pageScale="1" pageWidth="2000" pageHeight="1000" math="0" shadow="0">
      <root>
        <mxCell id="WIyWlLk6GJQsqaUBKTNV-0" />
        <mxCell id="WIyWlLk6GJQsqaUBKTNV-1" parent="WIyWlLk6GJQsqaUBKTNV-0" />
        <mxCell id="ZqRjW3g99Fdt5QfIcLOO-16" style="edgeStyle=orthogonalEdgeStyle;rounded=0;orthogonalLoop=1;jettySize=auto;html=1;exitX=0.75;exitY=0;exitDx=0;exitDy=0;entryX=1;entryY=0.5;entryDx=0;entryDy=0;endArrow=none;endFill=0;" edge="1" parent="WIyWlLk6GJQsqaUBKTNV-1" source="RbxjqVqwLwfZ6pEtyOEy-89" target="VtZZ2VHJc7jR5-T_gqCY-42">
          <mxGeometry relative="1" as="geometry">
            <Array as="points">
              <mxPoint x="1080" y="730" />
              <mxPoint x="1160" y="730" />
              <mxPoint x="1160" y="397" />
            </Array>
          </mxGeometry>
        </mxCell>
        <mxCell id="RbxjqVqwLwfZ6pEtyOEy-89" value="Entity" style="swimlane;fontStyle=2;align=center;verticalAlign=top;childLayout=stackLayout;horizontal=1;startSize=26;horizontalStack=0;resizeParent=1;resizeLast=0;collapsible=1;marginBottom=0;rounded=0;shadow=0;strokeWidth=1;" parent="WIyWlLk6GJQsqaUBKTNV-1" vertex="1">
          <mxGeometry x="840" y="760" width="320" height="476" as="geometry">
            <mxRectangle x="550" y="140" width="160" height="26" as="alternateBounds" />
          </mxGeometry>
        </mxCell>
        <mxCell id="ZqRjW3g99Fdt5QfIcLOO-27" value="# EntityData :  EntityData" style="text;align=left;verticalAlign=top;spacingLeft=4;spacingRight=4;overflow=hidden;rotatable=0;points=[[0,0.5],[1,0.5]];portConstraint=eastwest;rounded=0;shadow=0;html=0;" vertex="1" parent="RbxjqVqwLwfZ6pEtyOEy-89">
          <mxGeometry y="26" width="320" height="26" as="geometry" />
        </mxCell>
        <mxCell id="RbxjqVqwLwfZ6pEtyOEy-90" value="+ Name :  string" style="text;align=left;verticalAlign=top;spacingLeft=4;spacingRight=4;overflow=hidden;rotatable=0;points=[[0,0.5],[1,0.5]];portConstraint=eastwest;rounded=0;shadow=0;html=0;" parent="RbxjqVqwLwfZ6pEtyOEy-89" vertex="1">
          <mxGeometry y="52" width="320" height="26" as="geometry" />
        </mxCell>
        <mxCell id="RbxjqVqwLwfZ6pEtyOEy-91" value="+ Classe :  string" style="text;align=left;verticalAlign=top;spacingLeft=4;spacingRight=4;overflow=hidden;rotatable=0;points=[[0,0.5],[1,0.5]];portConstraint=eastwest;rounded=0;shadow=0;html=0;" parent="RbxjqVqwLwfZ6pEtyOEy-89" vertex="1">
          <mxGeometry y="78" width="320" height="26" as="geometry" />
        </mxCell>
        <mxCell id="RbxjqVqwLwfZ6pEtyOEy-92" value="+ MovementPoints : int" style="text;align=left;verticalAlign=top;spacingLeft=4;spacingRight=4;overflow=hidden;rotatable=0;points=[[0,0.5],[1,0.5]];portConstraint=eastwest;" parent="RbxjqVqwLwfZ6pEtyOEy-89" vertex="1">
          <mxGeometry y="104" width="320" height="26" as="geometry" />
        </mxCell>
        <mxCell id="RbxjqVqwLwfZ6pEtyOEy-93" value="+ ActionPoints : int" style="text;align=left;verticalAlign=top;spacingLeft=4;spacingRight=4;overflow=hidden;rotatable=0;points=[[0,0.5],[1,0.5]];portConstraint=eastwest;rounded=0;shadow=0;html=0;" parent="RbxjqVqwLwfZ6pEtyOEy-89" vertex="1">
          <mxGeometry y="130" width="320" height="26" as="geometry" />
        </mxCell>
        <mxCell id="RbxjqVqwLwfZ6pEtyOEy-94" value="+ HP :  int" style="text;align=left;verticalAlign=top;spacingLeft=4;spacingRight=4;overflow=hidden;rotatable=0;points=[[0,0.5],[1,0.5]];portConstraint=eastwest;rounded=0;shadow=0;html=0;" parent="RbxjqVqwLwfZ6pEtyOEy-89" vertex="1">
          <mxGeometry y="156" width="320" height="26" as="geometry" />
        </mxCell>
        <mxCell id="RbxjqVqwLwfZ6pEtyOEy-95" value="+ Speed :  int" style="text;align=left;verticalAlign=top;spacingLeft=4;spacingRight=4;overflow=hidden;rotatable=0;points=[[0,0.5],[1,0.5]];portConstraint=eastwest;rounded=0;shadow=0;html=0;" parent="RbxjqVqwLwfZ6pEtyOEy-89" vertex="1">
          <mxGeometry y="182" width="320" height="26" as="geometry" />
        </mxCell>
        <mxCell id="RbxjqVqwLwfZ6pEtyOEy-96" value="+ ActionPool : List&lt;Action&gt;" style="text;align=left;verticalAlign=top;spacingLeft=4;spacingRight=4;overflow=hidden;rotatable=0;points=[[0,0.5],[1,0.5]];portConstraint=eastwest;rounded=0;shadow=0;html=0;" parent="RbxjqVqwLwfZ6pEtyOEy-89" vertex="1">
          <mxGeometry y="208" width="320" height="26" as="geometry" />
        </mxCell>
        <mxCell id="VtZZ2VHJc7jR5-T_gqCY-30" value="+ SquareUnder : Square" style="text;align=left;verticalAlign=top;spacingLeft=4;spacingRight=4;overflow=hidden;rotatable=0;points=[[0,0.5],[1,0.5]];portConstraint=eastwest;rounded=0;shadow=0;html=0;" parent="RbxjqVqwLwfZ6pEtyOEy-89" vertex="1">
          <mxGeometry y="234" width="320" height="26" as="geometry" />
        </mxCell>
        <mxCell id="RbxjqVqwLwfZ6pEtyOEy-97" value="" style="line;html=1;strokeWidth=1;align=left;verticalAlign=middle;spacingTop=-1;spacingLeft=3;spacingRight=3;rotatable=0;labelPosition=right;points=[];portConstraint=eastwest;" parent="RbxjqVqwLwfZ6pEtyOEy-89" vertex="1">
          <mxGeometry y="260" width="320" height="8" as="geometry" />
        </mxCell>
        <mxCell id="RbxjqVqwLwfZ6pEtyOEy-98" value="+ InitEntity() : void" style="text;align=left;verticalAlign=top;spacingLeft=4;spacingRight=4;overflow=hidden;rotatable=0;points=[[0,0.5],[1,0.5]];portConstraint=eastwest;" parent="RbxjqVqwLwfZ6pEtyOEy-89" vertex="1">
          <mxGeometry y="268" width="320" height="26" as="geometry" />
        </mxCell>
        <mxCell id="RbxjqVqwLwfZ6pEtyOEy-99" value="+ Move(path : List&lt;Transform&gt;) : void" style="text;align=left;verticalAlign=top;spacingLeft=4;spacingRight=4;overflow=hidden;rotatable=0;points=[[0,0.5],[1,0.5]];portConstraint=eastwest;" parent="RbxjqVqwLwfZ6pEtyOEy-89" vertex="1">
          <mxGeometry y="294" width="320" height="26" as="geometry" />
        </mxCell>
        <mxCell id="RbxjqVqwLwfZ6pEtyOEy-100" value="+ DecreasePM(pmToLose : int) : void" style="text;align=left;verticalAlign=top;spacingLeft=4;spacingRight=4;overflow=hidden;rotatable=0;points=[[0,0.5],[1,0.5]];portConstraint=eastwest;" parent="RbxjqVqwLwfZ6pEtyOEy-89" vertex="1">
          <mxGeometry y="320" width="320" height="26" as="geometry" />
        </mxCell>
        <mxCell id="RbxjqVqwLwfZ6pEtyOEy-101" value="+ DecreasePA(paToLose : int) : void" style="text;align=left;verticalAlign=top;spacingLeft=4;spacingRight=4;overflow=hidden;rotatable=0;points=[[0,0.5],[1,0.5]];portConstraint=eastwest;" parent="RbxjqVqwLwfZ6pEtyOEy-89" vertex="1">
          <mxGeometry y="346" width="320" height="26" as="geometry" />
        </mxCell>
        <mxCell id="RbxjqVqwLwfZ6pEtyOEy-102" value="+ AttackEnnemy(action : Action, entity : Entity) : void" style="text;align=left;verticalAlign=top;spacingLeft=4;spacingRight=4;overflow=hidden;rotatable=0;points=[[0,0.5],[1,0.5]];portConstraint=eastwest;" parent="RbxjqVqwLwfZ6pEtyOEy-89" vertex="1">
          <mxGeometry y="372" width="320" height="26" as="geometry" />
        </mxCell>
        <mxCell id="RbxjqVqwLwfZ6pEtyOEy-103" value="+ TakeDamage(damages : int) : void" style="text;align=left;verticalAlign=top;spacingLeft=4;spacingRight=4;overflow=hidden;rotatable=0;points=[[0,0.5],[1,0.5]];portConstraint=eastwest;" parent="RbxjqVqwLwfZ6pEtyOEy-89" vertex="1">
          <mxGeometry y="398" width="320" height="26" as="geometry" />
        </mxCell>
        <mxCell id="RbxjqVqwLwfZ6pEtyOEy-104" value="+ HealHP(hp : int) : void" style="text;align=left;verticalAlign=top;spacingLeft=4;spacingRight=4;overflow=hidden;rotatable=0;points=[[0,0.5],[1,0.5]];portConstraint=eastwest;" parent="RbxjqVqwLwfZ6pEtyOEy-89" vertex="1">
          <mxGeometry y="424" width="320" height="26" as="geometry" />
        </mxCell>
        <mxCell id="RbxjqVqwLwfZ6pEtyOEy-105" value="+ ResetPoints() : void" style="text;align=left;verticalAlign=top;spacingLeft=4;spacingRight=4;overflow=hidden;rotatable=0;points=[[0,0.5],[1,0.5]];portConstraint=eastwest;" parent="RbxjqVqwLwfZ6pEtyOEy-89" vertex="1">
          <mxGeometry y="450" width="320" height="26" as="geometry" />
        </mxCell>
        <mxCell id="RbxjqVqwLwfZ6pEtyOEy-138" style="edgeStyle=orthogonalEdgeStyle;rounded=0;orthogonalLoop=1;jettySize=auto;html=1;exitX=1;exitY=0.5;exitDx=0;exitDy=0;endArrow=block;endFill=0;startArrow=none;startFill=0;" parent="WIyWlLk6GJQsqaUBKTNV-1" source="RbxjqVqwLwfZ6pEtyOEy-107" edge="1">
          <mxGeometry relative="1" as="geometry">
            <Array as="points">
              <mxPoint x="600" y="1330" />
              <mxPoint x="600" y="1119" />
            </Array>
            <mxPoint x="840" y="1119" as="targetPoint" />
          </mxGeometry>
        </mxCell>
        <mxCell id="RbxjqVqwLwfZ6pEtyOEy-139" value="Playable Entities" style="swimlane;whiteSpace=wrap;html=1;fillColor=#ffe6cc;strokeColor=#d79b00;rounded=1;" parent="WIyWlLk6GJQsqaUBKTNV-1" vertex="1">
          <mxGeometry y="640" width="800" height="800" as="geometry" />
        </mxCell>
        <mxCell id="RbxjqVqwLwfZ6pEtyOEy-106" value="MainPlayer" style="swimlane;fontStyle=0;align=center;verticalAlign=top;childLayout=stackLayout;horizontal=1;startSize=26;horizontalStack=0;resizeParent=1;resizeLast=0;collapsible=1;marginBottom=0;rounded=0;shadow=0;strokeWidth=1;" parent="RbxjqVqwLwfZ6pEtyOEy-139" vertex="1">
          <mxGeometry x="272.5" y="650" width="255" height="78" as="geometry">
            <mxRectangle x="550" y="140" width="160" height="26" as="alternateBounds" />
          </mxGeometry>
        </mxCell>
        <mxCell id="RbxjqVqwLwfZ6pEtyOEy-107" value="+ EntityData : EntityData" style="text;align=left;verticalAlign=top;spacingLeft=4;spacingRight=4;overflow=hidden;rotatable=0;points=[[0,0.5],[1,0.5]];portConstraint=eastwest;" parent="RbxjqVqwLwfZ6pEtyOEy-106" vertex="1">
          <mxGeometry y="26" width="255" height="26" as="geometry" />
        </mxCell>
        <mxCell id="ZqRjW3g99Fdt5QfIcLOO-22" value="+ PlayerStateMachine : PlayerStateMachine" style="text;align=left;verticalAlign=top;spacingLeft=4;spacingRight=4;overflow=hidden;rotatable=0;points=[[0,0.5],[1,0.5]];portConstraint=eastwest;" vertex="1" parent="RbxjqVqwLwfZ6pEtyOEy-106">
          <mxGeometry y="52" width="255" height="26" as="geometry" />
        </mxCell>
        <mxCell id="RbxjqVqwLwfZ6pEtyOEy-110" style="edgeStyle=orthogonalEdgeStyle;rounded=0;orthogonalLoop=1;jettySize=auto;html=1;exitX=0.5;exitY=1;exitDx=0;exitDy=0;entryX=0.5;entryY=0;entryDx=0;entryDy=0;endArrow=none;endFill=0;" parent="RbxjqVqwLwfZ6pEtyOEy-139" source="RbxjqVqwLwfZ6pEtyOEy-111" target="RbxjqVqwLwfZ6pEtyOEy-106" edge="1">
          <mxGeometry relative="1" as="geometry" />
        </mxCell>
        <mxCell id="RbxjqVqwLwfZ6pEtyOEy-111" value="PlayerStateMachine" style="swimlane;fontStyle=0;align=center;verticalAlign=top;childLayout=stackLayout;horizontal=1;startSize=26;horizontalStack=0;resizeParent=1;resizeLast=0;collapsible=1;marginBottom=0;rounded=0;shadow=0;strokeWidth=1;" parent="RbxjqVqwLwfZ6pEtyOEy-139" vertex="1">
          <mxGeometry x="260" y="440" width="280" height="150" as="geometry">
            <mxRectangle x="550" y="140" width="160" height="26" as="alternateBounds" />
          </mxGeometry>
        </mxCell>
        <mxCell id="RbxjqVqwLwfZ6pEtyOEy-112" value="+ CurrentState : IPlayerState&#xa;" style="text;align=left;verticalAlign=top;spacingLeft=4;spacingRight=4;overflow=hidden;rotatable=0;points=[[0,0.5],[1,0.5]];portConstraint=eastwest;" parent="RbxjqVqwLwfZ6pEtyOEy-111" vertex="1">
          <mxGeometry y="26" width="280" height="26" as="geometry" />
        </mxCell>
        <mxCell id="RbxjqVqwLwfZ6pEtyOEy-113" value="+PlayerInactiveState : PlayerInactiveState&#xa;" style="text;align=left;verticalAlign=top;spacingLeft=4;spacingRight=4;overflow=hidden;rotatable=0;points=[[0,0.5],[1,0.5]];portConstraint=eastwest;" parent="RbxjqVqwLwfZ6pEtyOEy-111" vertex="1">
          <mxGeometry y="52" width="280" height="26" as="geometry" />
        </mxCell>
        <mxCell id="RbxjqVqwLwfZ6pEtyOEy-114" value="+ PlayerActiveState : PlayerActiveState&#xa;" style="text;align=left;verticalAlign=top;spacingLeft=4;spacingRight=4;overflow=hidden;rotatable=0;points=[[0,0.5],[1,0.5]];portConstraint=eastwest;" parent="RbxjqVqwLwfZ6pEtyOEy-111" vertex="1">
          <mxGeometry y="78" width="280" height="26" as="geometry" />
        </mxCell>
        <mxCell id="RbxjqVqwLwfZ6pEtyOEy-115" value="" style="line;html=1;strokeWidth=1;align=left;verticalAlign=middle;spacingTop=-1;spacingLeft=3;spacingRight=3;rotatable=0;labelPosition=right;points=[];portConstraint=eastwest;" parent="RbxjqVqwLwfZ6pEtyOEy-111" vertex="1">
          <mxGeometry y="104" width="280" height="8" as="geometry" />
        </mxCell>
        <mxCell id="RbxjqVqwLwfZ6pEtyOEy-116" value="+ ChangeState(newState : IPlayerState) : void&#xa;" style="text;align=left;verticalAlign=top;spacingLeft=4;spacingRight=4;overflow=hidden;rotatable=0;points=[[0,0.5],[1,0.5]];portConstraint=eastwest;" parent="RbxjqVqwLwfZ6pEtyOEy-111" vertex="1">
          <mxGeometry y="112" width="280" height="26" as="geometry" />
        </mxCell>
        <mxCell id="RbxjqVqwLwfZ6pEtyOEy-118" value="&lt;IEntityState&gt;" style="swimlane;fontStyle=0;align=center;verticalAlign=top;childLayout=stackLayout;horizontal=1;startSize=26;horizontalStack=0;resizeParent=1;resizeLast=0;collapsible=1;marginBottom=0;rounded=0;shadow=0;strokeWidth=1;" parent="RbxjqVqwLwfZ6pEtyOEy-139" vertex="1">
          <mxGeometry x="230" y="40" width="340" height="80" as="geometry">
            <mxRectangle x="550" y="140" width="160" height="26" as="alternateBounds" />
          </mxGeometry>
        </mxCell>
        <mxCell id="RbxjqVqwLwfZ6pEtyOEy-119" value="+ OnEnter(entityStateMachine : EntityStateMachine) : void" style="text;align=left;verticalAlign=top;spacingLeft=4;spacingRight=4;overflow=hidden;rotatable=0;points=[[0,0.5],[1,0.5]];portConstraint=eastwest;" parent="RbxjqVqwLwfZ6pEtyOEy-118" vertex="1">
          <mxGeometry y="26" width="340" height="26" as="geometry" />
        </mxCell>
        <mxCell id="RbxjqVqwLwfZ6pEtyOEy-120" value="+ OnExit(playerStateMachine : EntityStateMachine) : void" style="text;align=left;verticalAlign=top;spacingLeft=4;spacingRight=4;overflow=hidden;rotatable=0;points=[[0,0.5],[1,0.5]];portConstraint=eastwest;" parent="RbxjqVqwLwfZ6pEtyOEy-118" vertex="1">
          <mxGeometry y="52" width="340" height="26" as="geometry" />
        </mxCell>
        <mxCell id="RbxjqVqwLwfZ6pEtyOEy-122" style="edgeStyle=orthogonalEdgeStyle;rounded=0;orthogonalLoop=1;jettySize=auto;html=1;exitX=0.5;exitY=0;exitDx=0;exitDy=0;entryX=0;entryY=0.5;entryDx=0;entryDy=0;endArrow=block;endFill=0;dashed=1;" parent="RbxjqVqwLwfZ6pEtyOEy-139" source="RbxjqVqwLwfZ6pEtyOEy-123" target="RbxjqVqwLwfZ6pEtyOEy-120" edge="1">
          <mxGeometry relative="1" as="geometry">
            <mxPoint x="230" y="131.0000000000001" as="targetPoint" />
          </mxGeometry>
        </mxCell>
        <mxCell id="RbxjqVqwLwfZ6pEtyOEy-123" value="PlayerActiveState" style="swimlane;fontStyle=0;align=center;verticalAlign=top;childLayout=stackLayout;horizontal=1;startSize=26;horizontalStack=0;resizeParent=1;resizeLast=0;collapsible=1;marginBottom=0;rounded=0;shadow=0;strokeWidth=1;" parent="RbxjqVqwLwfZ6pEtyOEy-139" vertex="1">
          <mxGeometry x="40" y="200" width="340" height="170" as="geometry">
            <mxRectangle x="550" y="140" width="160" height="26" as="alternateBounds" />
          </mxGeometry>
        </mxCell>
        <mxCell id="RbxjqVqwLwfZ6pEtyOEy-124" value="- _entityStateMachine : EntityStateMachine&#xa;" style="text;align=left;verticalAlign=top;spacingLeft=4;spacingRight=4;overflow=hidden;rotatable=0;points=[[0,0.5],[1,0.5]];portConstraint=eastwest;" parent="RbxjqVqwLwfZ6pEtyOEy-123" vertex="1">
          <mxGeometry y="26" width="340" height="26" as="geometry" />
        </mxCell>
        <mxCell id="RbxjqVqwLwfZ6pEtyOEy-125" value="- _inputAction : InputAction&#xa;" style="text;align=left;verticalAlign=top;spacingLeft=4;spacingRight=4;overflow=hidden;rotatable=0;points=[[0,0.5],[1,0.5]];portConstraint=eastwest;" parent="RbxjqVqwLwfZ6pEtyOEy-123" vertex="1">
          <mxGeometry y="52" width="340" height="26" as="geometry" />
        </mxCell>
        <mxCell id="RbxjqVqwLwfZ6pEtyOEy-126" value="" style="line;html=1;strokeWidth=1;align=left;verticalAlign=middle;spacingTop=-1;spacingLeft=3;spacingRight=3;rotatable=0;labelPosition=right;points=[];portConstraint=eastwest;" parent="RbxjqVqwLwfZ6pEtyOEy-123" vertex="1">
          <mxGeometry y="78" width="340" height="8" as="geometry" />
        </mxCell>
        <mxCell id="RbxjqVqwLwfZ6pEtyOEy-127" value="+ OnEnter(entityStateMachine : EntityStateMachine) : void" style="text;align=left;verticalAlign=top;spacingLeft=4;spacingRight=4;overflow=hidden;rotatable=0;points=[[0,0.5],[1,0.5]];portConstraint=eastwest;" parent="RbxjqVqwLwfZ6pEtyOEy-123" vertex="1">
          <mxGeometry y="86" width="340" height="26" as="geometry" />
        </mxCell>
        <mxCell id="RbxjqVqwLwfZ6pEtyOEy-128" value="+ OnExit(entityStateMachine : EntityStateMachine) : void" style="text;align=left;verticalAlign=top;spacingLeft=4;spacingRight=4;overflow=hidden;rotatable=0;points=[[0,0.5],[1,0.5]];portConstraint=eastwest;" parent="RbxjqVqwLwfZ6pEtyOEy-123" vertex="1">
          <mxGeometry y="112" width="340" height="26" as="geometry" />
        </mxCell>
        <mxCell id="RbxjqVqwLwfZ6pEtyOEy-130" value="+ OnAction(context : InputAction.CallbackContext) : void&#xa;" style="text;align=left;verticalAlign=top;spacingLeft=4;spacingRight=4;overflow=hidden;rotatable=0;points=[[0,0.5],[1,0.5]];portConstraint=eastwest;" parent="RbxjqVqwLwfZ6pEtyOEy-123" vertex="1">
          <mxGeometry y="138" width="340" height="26" as="geometry" />
        </mxCell>
        <mxCell id="RbxjqVqwLwfZ6pEtyOEy-108" style="edgeStyle=orthogonalEdgeStyle;rounded=0;orthogonalLoop=1;jettySize=auto;html=1;exitX=0.5;exitY=0;exitDx=0;exitDy=0;entryX=0.5;entryY=1;entryDx=0;entryDy=0;endArrow=none;endFill=0;" parent="RbxjqVqwLwfZ6pEtyOEy-139" source="RbxjqVqwLwfZ6pEtyOEy-111" target="RbxjqVqwLwfZ6pEtyOEy-123" edge="1">
          <mxGeometry relative="1" as="geometry">
            <mxPoint x="200" y="410" as="targetPoint" />
            <Array as="points">
              <mxPoint x="400" y="410" />
              <mxPoint x="210" y="410" />
            </Array>
          </mxGeometry>
        </mxCell>
        <mxCell id="RbxjqVqwLwfZ6pEtyOEy-131" style="edgeStyle=orthogonalEdgeStyle;rounded=0;orthogonalLoop=1;jettySize=auto;html=1;exitX=0.5;exitY=0;exitDx=0;exitDy=0;entryX=1;entryY=0.5;entryDx=0;entryDy=0;endArrow=block;endFill=0;dashed=1;" parent="RbxjqVqwLwfZ6pEtyOEy-139" source="RbxjqVqwLwfZ6pEtyOEy-132" target="RbxjqVqwLwfZ6pEtyOEy-120" edge="1">
          <mxGeometry relative="1" as="geometry">
            <mxPoint x="570" y="131.0000000000001" as="targetPoint" />
          </mxGeometry>
        </mxCell>
        <mxCell id="RbxjqVqwLwfZ6pEtyOEy-132" value="PlayerInactiveState" style="swimlane;fontStyle=0;align=center;verticalAlign=top;childLayout=stackLayout;horizontal=1;startSize=26;horizontalStack=0;resizeParent=1;resizeLast=0;collapsible=1;marginBottom=0;rounded=0;shadow=0;strokeWidth=1;" parent="RbxjqVqwLwfZ6pEtyOEy-139" vertex="1">
          <mxGeometry x="420" y="200" width="340" height="120" as="geometry">
            <mxRectangle x="550" y="140" width="160" height="26" as="alternateBounds" />
          </mxGeometry>
        </mxCell>
        <mxCell id="RbxjqVqwLwfZ6pEtyOEy-133" value="- _playerStateMachine : PlayerStateMachine&#xa;" style="text;align=left;verticalAlign=top;spacingLeft=4;spacingRight=4;overflow=hidden;rotatable=0;points=[[0,0.5],[1,0.5]];portConstraint=eastwest;" parent="RbxjqVqwLwfZ6pEtyOEy-132" vertex="1">
          <mxGeometry y="26" width="340" height="26" as="geometry" />
        </mxCell>
        <mxCell id="RbxjqVqwLwfZ6pEtyOEy-134" value="" style="line;html=1;strokeWidth=1;align=left;verticalAlign=middle;spacingTop=-1;spacingLeft=3;spacingRight=3;rotatable=0;labelPosition=right;points=[];portConstraint=eastwest;" parent="RbxjqVqwLwfZ6pEtyOEy-132" vertex="1">
          <mxGeometry y="52" width="340" height="8" as="geometry" />
        </mxCell>
        <mxCell id="RbxjqVqwLwfZ6pEtyOEy-136" value="+ OnExit(playerStateMachine : PlayerStateMachine) : void" style="text;align=left;verticalAlign=top;spacingLeft=4;spacingRight=4;overflow=hidden;rotatable=0;points=[[0,0.5],[1,0.5]];portConstraint=eastwest;" parent="RbxjqVqwLwfZ6pEtyOEy-132" vertex="1">
          <mxGeometry y="60" width="340" height="26" as="geometry" />
        </mxCell>
        <mxCell id="RbxjqVqwLwfZ6pEtyOEy-137" value="+ OnEnter(playerStateMachine : PlayerStateMachine) : void" style="text;align=left;verticalAlign=top;spacingLeft=4;spacingRight=4;overflow=hidden;rotatable=0;points=[[0,0.5],[1,0.5]];portConstraint=eastwest;" parent="RbxjqVqwLwfZ6pEtyOEy-132" vertex="1">
          <mxGeometry y="86" width="340" height="26" as="geometry" />
        </mxCell>
        <mxCell id="RbxjqVqwLwfZ6pEtyOEy-109" style="edgeStyle=orthogonalEdgeStyle;rounded=0;orthogonalLoop=1;jettySize=auto;html=1;exitX=0.5;exitY=0;exitDx=0;exitDy=0;entryX=0.5;entryY=1;entryDx=0;entryDy=0;endArrow=none;endFill=0;" parent="RbxjqVqwLwfZ6pEtyOEy-139" source="RbxjqVqwLwfZ6pEtyOEy-111" target="RbxjqVqwLwfZ6pEtyOEy-132" edge="1">
          <mxGeometry relative="1" as="geometry">
            <Array as="points">
              <mxPoint x="400" y="410" />
              <mxPoint x="590" y="410" />
            </Array>
          </mxGeometry>
        </mxCell>
        <mxCell id="RbxjqVqwLwfZ6pEtyOEy-140" value="Actions" style="swimlane;whiteSpace=wrap;html=1;fillColor=#dae8fc;strokeColor=#6c8ebf;rounded=1;" parent="WIyWlLk6GJQsqaUBKTNV-1" vertex="1">
          <mxGeometry x="840" y="1720" width="320" height="520" as="geometry" />
        </mxCell>
        <mxCell id="RbxjqVqwLwfZ6pEtyOEy-141" value="EntityData" style="swimlane;fontStyle=0;align=center;verticalAlign=top;childLayout=stackLayout;horizontal=1;startSize=26;horizontalStack=0;resizeParent=1;resizeLast=0;collapsible=1;marginBottom=0;rounded=0;shadow=0;strokeWidth=1;" parent="WIyWlLk6GJQsqaUBKTNV-1" vertex="1">
          <mxGeometry x="895" y="1260" width="210" height="400" as="geometry">
            <mxRectangle x="550" y="140" width="160" height="26" as="alternateBounds" />
          </mxGeometry>
        </mxCell>
        <mxCell id="RbxjqVqwLwfZ6pEtyOEy-142" value="- _name : string" style="text;align=left;verticalAlign=top;spacingLeft=4;spacingRight=4;overflow=hidden;rotatable=0;points=[[0,0.5],[1,0.5]];portConstraint=eastwest;" parent="RbxjqVqwLwfZ6pEtyOEy-141" vertex="1">
          <mxGeometry y="26" width="210" height="26" as="geometry" />
        </mxCell>
        <mxCell id="RbxjqVqwLwfZ6pEtyOEy-143" value="+ Name : string" style="text;align=left;verticalAlign=top;spacingLeft=4;spacingRight=4;overflow=hidden;rotatable=0;points=[[0,0.5],[1,0.5]];portConstraint=eastwest;" parent="RbxjqVqwLwfZ6pEtyOEy-141" vertex="1">
          <mxGeometry y="52" width="210" height="26" as="geometry" />
        </mxCell>
        <mxCell id="RbxjqVqwLwfZ6pEtyOEy-144" value="- _classe : string " style="text;align=left;verticalAlign=top;spacingLeft=4;spacingRight=4;overflow=hidden;rotatable=0;points=[[0,0.5],[1,0.5]];portConstraint=eastwest;" parent="RbxjqVqwLwfZ6pEtyOEy-141" vertex="1">
          <mxGeometry y="78" width="210" height="26" as="geometry" />
        </mxCell>
        <mxCell id="RbxjqVqwLwfZ6pEtyOEy-145" value="+ Classe : string" style="text;align=left;verticalAlign=top;spacingLeft=4;spacingRight=4;overflow=hidden;rotatable=0;points=[[0,0.5],[1,0.5]];portConstraint=eastwest;" parent="RbxjqVqwLwfZ6pEtyOEy-141" vertex="1">
          <mxGeometry y="104" width="210" height="26" as="geometry" />
        </mxCell>
        <mxCell id="RbxjqVqwLwfZ6pEtyOEy-146" value="- _movementPoints : int" style="text;align=left;verticalAlign=top;spacingLeft=4;spacingRight=4;overflow=hidden;rotatable=0;points=[[0,0.5],[1,0.5]];portConstraint=eastwest;" parent="RbxjqVqwLwfZ6pEtyOEy-141" vertex="1">
          <mxGeometry y="130" width="210" height="26" as="geometry" />
        </mxCell>
        <mxCell id="RbxjqVqwLwfZ6pEtyOEy-147" value="+ MovementPoints : int" style="text;align=left;verticalAlign=top;spacingLeft=4;spacingRight=4;overflow=hidden;rotatable=0;points=[[0,0.5],[1,0.5]];portConstraint=eastwest;" parent="RbxjqVqwLwfZ6pEtyOEy-141" vertex="1">
          <mxGeometry y="156" width="210" height="26" as="geometry" />
        </mxCell>
        <mxCell id="RbxjqVqwLwfZ6pEtyOEy-148" value="- _actionPoints : int" style="text;align=left;verticalAlign=top;spacingLeft=4;spacingRight=4;overflow=hidden;rotatable=0;points=[[0,0.5],[1,0.5]];portConstraint=eastwest;" parent="RbxjqVqwLwfZ6pEtyOEy-141" vertex="1">
          <mxGeometry y="182" width="210" height="26" as="geometry" />
        </mxCell>
        <mxCell id="RbxjqVqwLwfZ6pEtyOEy-149" value="+ ActionPoints : int" style="text;align=left;verticalAlign=top;spacingLeft=4;spacingRight=4;overflow=hidden;rotatable=0;points=[[0,0.5],[1,0.5]];portConstraint=eastwest;" parent="RbxjqVqwLwfZ6pEtyOEy-141" vertex="1">
          <mxGeometry y="208" width="210" height="26" as="geometry" />
        </mxCell>
        <mxCell id="RbxjqVqwLwfZ6pEtyOEy-150" value="- _maxHP : int" style="text;align=left;verticalAlign=top;spacingLeft=4;spacingRight=4;overflow=hidden;rotatable=0;points=[[0,0.5],[1,0.5]];portConstraint=eastwest;" parent="RbxjqVqwLwfZ6pEtyOEy-141" vertex="1">
          <mxGeometry y="234" width="210" height="26" as="geometry" />
        </mxCell>
        <mxCell id="RbxjqVqwLwfZ6pEtyOEy-151" value="+ MaxHp : int" style="text;align=left;verticalAlign=top;spacingLeft=4;spacingRight=4;overflow=hidden;rotatable=0;points=[[0,0.5],[1,0.5]];portConstraint=eastwest;" parent="RbxjqVqwLwfZ6pEtyOEy-141" vertex="1">
          <mxGeometry y="260" width="210" height="26" as="geometry" />
        </mxCell>
        <mxCell id="RbxjqVqwLwfZ6pEtyOEy-152" value="- _speed : int" style="text;align=left;verticalAlign=top;spacingLeft=4;spacingRight=4;overflow=hidden;rotatable=0;points=[[0,0.5],[1,0.5]];portConstraint=eastwest;" parent="RbxjqVqwLwfZ6pEtyOEy-141" vertex="1">
          <mxGeometry y="286" width="210" height="26" as="geometry" />
        </mxCell>
        <mxCell id="RbxjqVqwLwfZ6pEtyOEy-153" value="+ Speed : int" style="text;align=left;verticalAlign=top;spacingLeft=4;spacingRight=4;overflow=hidden;rotatable=0;points=[[0,0.5],[1,0.5]];portConstraint=eastwest;" parent="RbxjqVqwLwfZ6pEtyOEy-141" vertex="1">
          <mxGeometry y="312" width="210" height="26" as="geometry" />
        </mxCell>
        <mxCell id="RbxjqVqwLwfZ6pEtyOEy-154" value="- _actionPool : List&lt;Action&gt;" style="text;align=left;verticalAlign=top;spacingLeft=4;spacingRight=4;overflow=hidden;rotatable=0;points=[[0,0.5],[1,0.5]];portConstraint=eastwest;" parent="RbxjqVqwLwfZ6pEtyOEy-141" vertex="1">
          <mxGeometry y="338" width="210" height="26" as="geometry" />
        </mxCell>
        <mxCell id="RbxjqVqwLwfZ6pEtyOEy-155" value="+ ActionPool : List&lt;Action&gt;" style="text;align=left;verticalAlign=top;spacingLeft=4;spacingRight=4;overflow=hidden;rotatable=0;points=[[0,0.5],[1,0.5]];portConstraint=eastwest;" parent="RbxjqVqwLwfZ6pEtyOEy-141" vertex="1">
          <mxGeometry y="364" width="210" height="26" as="geometry" />
        </mxCell>
        <mxCell id="RbxjqVqwLwfZ6pEtyOEy-156" style="edgeStyle=orthogonalEdgeStyle;rounded=0;orthogonalLoop=1;jettySize=auto;html=1;exitX=0.5;exitY=0;exitDx=0;exitDy=0;entryX=0.5;entryY=1;entryDx=0;entryDy=0;endArrow=none;endFill=0;" parent="WIyWlLk6GJQsqaUBKTNV-1" source="RbxjqVqwLwfZ6pEtyOEy-157" target="RbxjqVqwLwfZ6pEtyOEy-169" edge="1">
          <mxGeometry relative="1" as="geometry" />
        </mxCell>
        <mxCell id="RbxjqVqwLwfZ6pEtyOEy-157" value="ActionData" style="swimlane;fontStyle=0;align=center;verticalAlign=top;childLayout=stackLayout;horizontal=1;startSize=26;horizontalStack=0;resizeParent=1;resizeLast=0;collapsible=1;marginBottom=0;rounded=0;shadow=0;strokeWidth=1;" parent="WIyWlLk6GJQsqaUBKTNV-1" vertex="1">
          <mxGeometry x="895" y="1890" width="210" height="290" as="geometry">
            <mxRectangle x="550" y="140" width="160" height="26" as="alternateBounds" />
          </mxGeometry>
        </mxCell>
        <mxCell id="RbxjqVqwLwfZ6pEtyOEy-158" value="- _name : string" style="text;align=left;verticalAlign=top;spacingLeft=4;spacingRight=4;overflow=hidden;rotatable=0;points=[[0,0.5],[1,0.5]];portConstraint=eastwest;" parent="RbxjqVqwLwfZ6pEtyOEy-157" vertex="1">
          <mxGeometry y="26" width="210" height="26" as="geometry" />
        </mxCell>
        <mxCell id="RbxjqVqwLwfZ6pEtyOEy-159" value="+ Name : string" style="text;align=left;verticalAlign=top;spacingLeft=4;spacingRight=4;overflow=hidden;rotatable=0;points=[[0,0.5],[1,0.5]];portConstraint=eastwest;" parent="RbxjqVqwLwfZ6pEtyOEy-157" vertex="1">
          <mxGeometry y="52" width="210" height="26" as="geometry" />
        </mxCell>
        <mxCell id="RbxjqVqwLwfZ6pEtyOEy-160" value="- _paCost : int" style="text;align=left;verticalAlign=top;spacingLeft=4;spacingRight=4;overflow=hidden;rotatable=0;points=[[0,0.5],[1,0.5]];portConstraint=eastwest;" parent="RbxjqVqwLwfZ6pEtyOEy-157" vertex="1">
          <mxGeometry y="78" width="210" height="26" as="geometry" />
        </mxCell>
        <mxCell id="RbxjqVqwLwfZ6pEtyOEy-161" value="+ PACost : int" style="text;align=left;verticalAlign=top;spacingLeft=4;spacingRight=4;overflow=hidden;rotatable=0;points=[[0,0.5],[1,0.5]];portConstraint=eastwest;" parent="RbxjqVqwLwfZ6pEtyOEy-157" vertex="1">
          <mxGeometry y="104" width="210" height="26" as="geometry" />
        </mxCell>
        <mxCell id="RbxjqVqwLwfZ6pEtyOEy-162" value="- _damages : int" style="text;align=left;verticalAlign=top;spacingLeft=4;spacingRight=4;overflow=hidden;rotatable=0;points=[[0,0.5],[1,0.5]];portConstraint=eastwest;" parent="RbxjqVqwLwfZ6pEtyOEy-157" vertex="1">
          <mxGeometry y="130" width="210" height="26" as="geometry" />
        </mxCell>
        <mxCell id="RbxjqVqwLwfZ6pEtyOEy-163" value="+ Damages : int" style="text;align=left;verticalAlign=top;spacingLeft=4;spacingRight=4;overflow=hidden;rotatable=0;points=[[0,0.5],[1,0.5]];portConstraint=eastwest;" parent="RbxjqVqwLwfZ6pEtyOEy-157" vertex="1">
          <mxGeometry y="156" width="210" height="26" as="geometry" />
        </mxCell>
        <mxCell id="RbxjqVqwLwfZ6pEtyOEy-164" value="- _range : int" style="text;align=left;verticalAlign=top;spacingLeft=4;spacingRight=4;overflow=hidden;rotatable=0;points=[[0,0.5],[1,0.5]];portConstraint=eastwest;" parent="RbxjqVqwLwfZ6pEtyOEy-157" vertex="1">
          <mxGeometry y="182" width="210" height="26" as="geometry" />
        </mxCell>
        <mxCell id="RbxjqVqwLwfZ6pEtyOEy-165" value="+ Range : int" style="text;align=left;verticalAlign=top;spacingLeft=4;spacingRight=4;overflow=hidden;rotatable=0;points=[[0,0.5],[1,0.5]];portConstraint=eastwest;" parent="RbxjqVqwLwfZ6pEtyOEy-157" vertex="1">
          <mxGeometry y="208" width="210" height="26" as="geometry" />
        </mxCell>
        <mxCell id="RbxjqVqwLwfZ6pEtyOEy-166" value="- _isForHeal : bool" style="text;align=left;verticalAlign=top;spacingLeft=4;spacingRight=4;overflow=hidden;rotatable=0;points=[[0,0.5],[1,0.5]];portConstraint=eastwest;" parent="RbxjqVqwLwfZ6pEtyOEy-157" vertex="1">
          <mxGeometry y="234" width="210" height="26" as="geometry" />
        </mxCell>
        <mxCell id="RbxjqVqwLwfZ6pEtyOEy-167" value="+ IsForHeal : bool" style="text;align=left;verticalAlign=top;spacingLeft=4;spacingRight=4;overflow=hidden;rotatable=0;points=[[0,0.5],[1,0.5]];portConstraint=eastwest;" parent="RbxjqVqwLwfZ6pEtyOEy-157" vertex="1">
          <mxGeometry y="260" width="210" height="26" as="geometry" />
        </mxCell>
        <mxCell id="RbxjqVqwLwfZ6pEtyOEy-168" style="edgeStyle=orthogonalEdgeStyle;rounded=0;orthogonalLoop=1;jettySize=auto;html=1;exitX=0.5;exitY=0;exitDx=0;exitDy=0;entryX=0.5;entryY=1;entryDx=0;entryDy=0;endArrow=none;endFill=0;" parent="WIyWlLk6GJQsqaUBKTNV-1" source="RbxjqVqwLwfZ6pEtyOEy-169" target="RbxjqVqwLwfZ6pEtyOEy-141" edge="1">
          <mxGeometry relative="1" as="geometry" />
        </mxCell>
        <mxCell id="RbxjqVqwLwfZ6pEtyOEy-169" value="Action" style="swimlane;fontStyle=0;align=center;verticalAlign=top;childLayout=stackLayout;horizontal=1;startSize=26;horizontalStack=0;resizeParent=1;resizeLast=0;collapsible=1;marginBottom=0;rounded=0;shadow=0;strokeWidth=1;" parent="WIyWlLk6GJQsqaUBKTNV-1" vertex="1">
          <mxGeometry x="895" y="1760" width="210" height="90" as="geometry">
            <mxRectangle x="550" y="140" width="160" height="26" as="alternateBounds" />
          </mxGeometry>
        </mxCell>
        <mxCell id="RbxjqVqwLwfZ6pEtyOEy-170" value="- _actionBase : ActionBase" style="text;align=left;verticalAlign=top;spacingLeft=4;spacingRight=4;overflow=hidden;rotatable=0;points=[[0,0.5],[1,0.5]];portConstraint=eastwest;" parent="RbxjqVqwLwfZ6pEtyOEy-169" vertex="1">
          <mxGeometry y="26" width="210" height="26" as="geometry" />
        </mxCell>
        <mxCell id="RbxjqVqwLwfZ6pEtyOEy-171" value="+ ActionBase : ActionBase" style="text;align=left;verticalAlign=top;spacingLeft=4;spacingRight=4;overflow=hidden;rotatable=0;points=[[0,0.5],[1,0.5]];portConstraint=eastwest;" parent="RbxjqVqwLwfZ6pEtyOEy-169" vertex="1">
          <mxGeometry y="52" width="210" height="26" as="geometry" />
        </mxCell>
        <mxCell id="RbxjqVqwLwfZ6pEtyOEy-172" value="Not Playable Entities" style="swimlane;whiteSpace=wrap;html=1;fillColor=#d5e8d4;strokeColor=#82b366;rounded=1;startSize=23;" parent="WIyWlLk6GJQsqaUBKTNV-1" vertex="1">
          <mxGeometry x="1200" y="800" width="800" height="760" as="geometry" />
        </mxCell>
        <mxCell id="RbxjqVqwLwfZ6pEtyOEy-219" style="edgeStyle=orthogonalEdgeStyle;rounded=0;orthogonalLoop=1;jettySize=auto;html=1;exitX=0.5;exitY=0;exitDx=0;exitDy=0;entryX=0.5;entryY=1;entryDx=0;entryDy=0;endArrow=none;endFill=0;dashed=1;startArrow=block;startFill=0;" parent="RbxjqVqwLwfZ6pEtyOEy-172" source="RbxjqVqwLwfZ6pEtyOEy-175" target="RbxjqVqwLwfZ6pEtyOEy-180" edge="1">
          <mxGeometry relative="1" as="geometry" />
        </mxCell>
        <mxCell id="RbxjqVqwLwfZ6pEtyOEy-175" value="IComportement" style="swimlane;fontStyle=0;align=center;verticalAlign=top;childLayout=stackLayout;horizontal=1;startSize=26;horizontalStack=0;resizeParent=1;resizeLast=0;collapsible=1;marginBottom=0;rounded=0;shadow=0;strokeWidth=1;" parent="RbxjqVqwLwfZ6pEtyOEy-172" vertex="1">
          <mxGeometry x="285" y="674" width="230" height="52" as="geometry">
            <mxRectangle x="550" y="140" width="160" height="26" as="alternateBounds" />
          </mxGeometry>
        </mxCell>
        <mxCell id="RbxjqVqwLwfZ6pEtyOEy-178" value="+ ChooseAnAction() : void" style="text;align=left;verticalAlign=top;spacingLeft=4;spacingRight=4;overflow=hidden;rotatable=0;points=[[0,0.5],[1,0.5]];portConstraint=eastwest;" parent="RbxjqVqwLwfZ6pEtyOEy-175" vertex="1">
          <mxGeometry y="26" width="230" height="26" as="geometry" />
        </mxCell>
        <mxCell id="RbxjqVqwLwfZ6pEtyOEy-180" value="****Main**** (insérer nom ennemi)" style="swimlane;fontStyle=0;align=center;verticalAlign=top;childLayout=stackLayout;horizontal=1;startSize=26;horizontalStack=0;resizeParent=1;resizeLast=0;collapsible=1;marginBottom=0;rounded=0;shadow=0;strokeWidth=1;" parent="RbxjqVqwLwfZ6pEtyOEy-172" vertex="1">
          <mxGeometry x="272.5" y="530" width="255" height="112" as="geometry">
            <mxRectangle x="550" y="140" width="160" height="26" as="alternateBounds" />
          </mxGeometry>
        </mxCell>
        <mxCell id="RbxjqVqwLwfZ6pEtyOEy-181" value="+ EntityData : EntityData" style="text;align=left;verticalAlign=top;spacingLeft=4;spacingRight=4;overflow=hidden;rotatable=0;points=[[0,0.5],[1,0.5]];portConstraint=eastwest;" parent="RbxjqVqwLwfZ6pEtyOEy-180" vertex="1">
          <mxGeometry y="26" width="255" height="26" as="geometry" />
        </mxCell>
        <mxCell id="ZqRjW3g99Fdt5QfIcLOO-24" value="+ EnemyStateMachine : EnemyStateMachine" style="text;align=left;verticalAlign=top;spacingLeft=4;spacingRight=4;overflow=hidden;rotatable=0;points=[[0,0.5],[1,0.5]];portConstraint=eastwest;" vertex="1" parent="RbxjqVqwLwfZ6pEtyOEy-180">
          <mxGeometry y="52" width="255" height="26" as="geometry" />
        </mxCell>
        <mxCell id="ZqRjW3g99Fdt5QfIcLOO-23" value="" style="line;html=1;strokeWidth=1;align=left;verticalAlign=middle;spacingTop=-1;spacingLeft=3;spacingRight=3;rotatable=0;labelPosition=right;points=[];portConstraint=eastwest;" vertex="1" parent="RbxjqVqwLwfZ6pEtyOEy-180">
          <mxGeometry y="78" width="255" height="8" as="geometry" />
        </mxCell>
        <mxCell id="RbxjqVqwLwfZ6pEtyOEy-222" value="+ ChooseAnAction() : void" style="text;align=left;verticalAlign=top;spacingLeft=4;spacingRight=4;overflow=hidden;rotatable=0;points=[[0,0.5],[1,0.5]];portConstraint=eastwest;" parent="RbxjqVqwLwfZ6pEtyOEy-180" vertex="1">
          <mxGeometry y="86" width="255" height="26" as="geometry" />
        </mxCell>
        <mxCell id="RbxjqVqwLwfZ6pEtyOEy-184" style="edgeStyle=orthogonalEdgeStyle;rounded=0;orthogonalLoop=1;jettySize=auto;html=1;exitX=0.5;exitY=1;exitDx=0;exitDy=0;entryX=0.5;entryY=0;entryDx=0;entryDy=0;endArrow=none;endFill=0;" parent="RbxjqVqwLwfZ6pEtyOEy-172" source="RbxjqVqwLwfZ6pEtyOEy-185" target="RbxjqVqwLwfZ6pEtyOEy-180" edge="1">
          <mxGeometry relative="1" as="geometry" />
        </mxCell>
        <mxCell id="RbxjqVqwLwfZ6pEtyOEy-185" value="EnemyStateMachine" style="swimlane;fontStyle=0;align=center;verticalAlign=top;childLayout=stackLayout;horizontal=1;startSize=26;horizontalStack=0;resizeParent=1;resizeLast=0;collapsible=1;marginBottom=0;rounded=0;shadow=0;strokeWidth=1;" parent="RbxjqVqwLwfZ6pEtyOEy-172" vertex="1">
          <mxGeometry x="260" y="358" width="280" height="142" as="geometry">
            <mxRectangle x="550" y="140" width="160" height="26" as="alternateBounds" />
          </mxGeometry>
        </mxCell>
        <mxCell id="RbxjqVqwLwfZ6pEtyOEy-186" value="+ CurrentState : IEnemyState&#xa;" style="text;align=left;verticalAlign=top;spacingLeft=4;spacingRight=4;overflow=hidden;rotatable=0;points=[[0,0.5],[1,0.5]];portConstraint=eastwest;" parent="RbxjqVqwLwfZ6pEtyOEy-185" vertex="1">
          <mxGeometry y="26" width="280" height="26" as="geometry" />
        </mxCell>
        <mxCell id="RbxjqVqwLwfZ6pEtyOEy-187" value="+ EnemyInactiveState : EnemyInactiveState&#xa;" style="text;align=left;verticalAlign=top;spacingLeft=4;spacingRight=4;overflow=hidden;rotatable=0;points=[[0,0.5],[1,0.5]];portConstraint=eastwest;" parent="RbxjqVqwLwfZ6pEtyOEy-185" vertex="1">
          <mxGeometry y="52" width="280" height="26" as="geometry" />
        </mxCell>
        <mxCell id="RbxjqVqwLwfZ6pEtyOEy-188" value="+ EnemyActiveState : EnemyActiveState&#xa;" style="text;align=left;verticalAlign=top;spacingLeft=4;spacingRight=4;overflow=hidden;rotatable=0;points=[[0,0.5],[1,0.5]];portConstraint=eastwest;" parent="RbxjqVqwLwfZ6pEtyOEy-185" vertex="1">
          <mxGeometry y="78" width="280" height="26" as="geometry" />
        </mxCell>
        <mxCell id="RbxjqVqwLwfZ6pEtyOEy-189" value="" style="line;html=1;strokeWidth=1;align=left;verticalAlign=middle;spacingTop=-1;spacingLeft=3;spacingRight=3;rotatable=0;labelPosition=right;points=[];portConstraint=eastwest;" parent="RbxjqVqwLwfZ6pEtyOEy-185" vertex="1">
          <mxGeometry y="104" width="280" height="8" as="geometry" />
        </mxCell>
        <mxCell id="RbxjqVqwLwfZ6pEtyOEy-190" value="+ ChangeState(newState : IEnemyState) : void&#xa;" style="text;align=left;verticalAlign=top;spacingLeft=4;spacingRight=4;overflow=hidden;rotatable=0;points=[[0,0.5],[1,0.5]];portConstraint=eastwest;" parent="RbxjqVqwLwfZ6pEtyOEy-185" vertex="1">
          <mxGeometry y="112" width="280" height="26" as="geometry" />
        </mxCell>
        <mxCell id="RbxjqVqwLwfZ6pEtyOEy-192" value="&lt;IEnemyState&gt;" style="swimlane;fontStyle=0;align=center;verticalAlign=top;childLayout=stackLayout;horizontal=1;startSize=26;horizontalStack=0;resizeParent=1;resizeLast=0;collapsible=1;marginBottom=0;rounded=0;shadow=0;strokeWidth=1;" parent="RbxjqVqwLwfZ6pEtyOEy-172" vertex="1">
          <mxGeometry x="230" y="40" width="340" height="80" as="geometry">
            <mxRectangle x="550" y="140" width="160" height="26" as="alternateBounds" />
          </mxGeometry>
        </mxCell>
        <mxCell id="RbxjqVqwLwfZ6pEtyOEy-193" value="+ OnEnter(enemyStateMachine : EnemyStateMachine) : void" style="text;align=left;verticalAlign=top;spacingLeft=4;spacingRight=4;overflow=hidden;rotatable=0;points=[[0,0.5],[1,0.5]];portConstraint=eastwest;" parent="RbxjqVqwLwfZ6pEtyOEy-192" vertex="1">
          <mxGeometry y="26" width="340" height="26" as="geometry" />
        </mxCell>
        <mxCell id="RbxjqVqwLwfZ6pEtyOEy-194" value="+ OnExit(enemyStateMachine : EnemyStateMachine) : void" style="text;align=left;verticalAlign=top;spacingLeft=4;spacingRight=4;overflow=hidden;rotatable=0;points=[[0,0.5],[1,0.5]];portConstraint=eastwest;" parent="RbxjqVqwLwfZ6pEtyOEy-192" vertex="1">
          <mxGeometry y="52" width="340" height="26" as="geometry" />
        </mxCell>
        <mxCell id="RbxjqVqwLwfZ6pEtyOEy-196" style="edgeStyle=orthogonalEdgeStyle;rounded=0;orthogonalLoop=1;jettySize=auto;html=1;exitX=0.5;exitY=0;exitDx=0;exitDy=0;entryX=0;entryY=0.5;entryDx=0;entryDy=0;endArrow=block;endFill=0;dashed=1;" parent="RbxjqVqwLwfZ6pEtyOEy-172" source="RbxjqVqwLwfZ6pEtyOEy-197" edge="1">
          <mxGeometry relative="1" as="geometry">
            <mxPoint x="230" y="91" as="targetPoint" />
            <Array as="points">
              <mxPoint x="210" y="91" />
            </Array>
          </mxGeometry>
        </mxCell>
        <mxCell id="RbxjqVqwLwfZ6pEtyOEy-197" value="EnemyActiveState" style="swimlane;fontStyle=0;align=center;verticalAlign=top;childLayout=stackLayout;horizontal=1;startSize=26;horizontalStack=0;resizeParent=1;resizeLast=0;collapsible=1;marginBottom=0;rounded=0;shadow=0;strokeWidth=1;" parent="RbxjqVqwLwfZ6pEtyOEy-172" vertex="1">
          <mxGeometry x="40" y="160" width="350" height="112" as="geometry">
            <mxRectangle x="550" y="140" width="160" height="26" as="alternateBounds" />
          </mxGeometry>
        </mxCell>
        <mxCell id="RbxjqVqwLwfZ6pEtyOEy-198" value="- _enemyStateMachine : EnemyStateMachine" style="text;align=left;verticalAlign=top;spacingLeft=4;spacingRight=4;overflow=hidden;rotatable=0;points=[[0,0.5],[1,0.5]];portConstraint=eastwest;" parent="RbxjqVqwLwfZ6pEtyOEy-197" vertex="1">
          <mxGeometry y="26" width="350" height="26" as="geometry" />
        </mxCell>
        <mxCell id="RbxjqVqwLwfZ6pEtyOEy-200" value="" style="line;html=1;strokeWidth=1;align=left;verticalAlign=middle;spacingTop=-1;spacingLeft=3;spacingRight=3;rotatable=0;labelPosition=right;points=[];portConstraint=eastwest;" parent="RbxjqVqwLwfZ6pEtyOEy-197" vertex="1">
          <mxGeometry y="52" width="350" height="8" as="geometry" />
        </mxCell>
        <mxCell id="RbxjqVqwLwfZ6pEtyOEy-201" value="+ OnEnter(enemyStateMachine : EnemyStateMachine) : void" style="text;align=left;verticalAlign=top;spacingLeft=4;spacingRight=4;overflow=hidden;rotatable=0;points=[[0,0.5],[1,0.5]];portConstraint=eastwest;" parent="RbxjqVqwLwfZ6pEtyOEy-197" vertex="1">
          <mxGeometry y="60" width="350" height="26" as="geometry" />
        </mxCell>
        <mxCell id="RbxjqVqwLwfZ6pEtyOEy-202" value="+ OnExit(enemyStateMachine : EnemyStateMachine) : void" style="text;align=left;verticalAlign=top;spacingLeft=4;spacingRight=4;overflow=hidden;rotatable=0;points=[[0,0.5],[1,0.5]];portConstraint=eastwest;" parent="RbxjqVqwLwfZ6pEtyOEy-197" vertex="1">
          <mxGeometry y="86" width="350" height="26" as="geometry" />
        </mxCell>
        <mxCell id="RbxjqVqwLwfZ6pEtyOEy-182" style="edgeStyle=orthogonalEdgeStyle;rounded=0;orthogonalLoop=1;jettySize=auto;html=1;exitX=0.5;exitY=0;exitDx=0;exitDy=0;entryX=0.49;entryY=1.005;entryDx=0;entryDy=0;entryPerimeter=0;endArrow=none;endFill=0;" parent="RbxjqVqwLwfZ6pEtyOEy-172" source="RbxjqVqwLwfZ6pEtyOEy-185" target="RbxjqVqwLwfZ6pEtyOEy-202" edge="1">
          <mxGeometry relative="1" as="geometry">
            <mxPoint x="200.13999999999987" y="323.948" as="targetPoint" />
            <Array as="points">
              <mxPoint x="400" y="320" />
              <mxPoint x="212" y="320" />
              <mxPoint x="212" y="272" />
            </Array>
          </mxGeometry>
        </mxCell>
        <mxCell id="RbxjqVqwLwfZ6pEtyOEy-205" style="edgeStyle=orthogonalEdgeStyle;rounded=0;orthogonalLoop=1;jettySize=auto;html=1;exitX=0.5;exitY=0;exitDx=0;exitDy=0;entryX=1;entryY=0.5;entryDx=0;entryDy=0;endArrow=block;endFill=0;dashed=1;" parent="RbxjqVqwLwfZ6pEtyOEy-172" edge="1">
          <mxGeometry relative="1" as="geometry">
            <mxPoint x="590" y="160" as="sourcePoint" />
            <mxPoint x="570" y="91" as="targetPoint" />
            <Array as="points">
              <mxPoint x="590" y="91" />
            </Array>
          </mxGeometry>
        </mxCell>
        <mxCell id="RbxjqVqwLwfZ6pEtyOEy-183" style="edgeStyle=orthogonalEdgeStyle;rounded=0;orthogonalLoop=1;jettySize=auto;html=1;exitX=0.5;exitY=0;exitDx=0;exitDy=0;entryX=0.5;entryY=1;entryDx=0;entryDy=0;endArrow=none;endFill=0;" parent="RbxjqVqwLwfZ6pEtyOEy-172" source="RbxjqVqwLwfZ6pEtyOEy-185" edge="1">
          <mxGeometry relative="1" as="geometry">
            <Array as="points">
              <mxPoint x="400" y="320" />
              <mxPoint x="590" y="320" />
            </Array>
            <mxPoint x="590" y="272" as="targetPoint" />
          </mxGeometry>
        </mxCell>
        <mxCell id="RbxjqVqwLwfZ6pEtyOEy-212" value="EnemyInactiveState" style="swimlane;fontStyle=0;align=center;verticalAlign=top;childLayout=stackLayout;horizontal=1;startSize=26;horizontalStack=0;resizeParent=1;resizeLast=0;collapsible=1;marginBottom=0;rounded=0;shadow=0;strokeWidth=1;" parent="RbxjqVqwLwfZ6pEtyOEy-172" vertex="1">
          <mxGeometry x="415" y="160" width="350" height="112" as="geometry">
            <mxRectangle x="550" y="140" width="160" height="26" as="alternateBounds" />
          </mxGeometry>
        </mxCell>
        <mxCell id="RbxjqVqwLwfZ6pEtyOEy-213" value="- _enemyStateMachine : EnemyStateMachine" style="text;align=left;verticalAlign=top;spacingLeft=4;spacingRight=4;overflow=hidden;rotatable=0;points=[[0,0.5],[1,0.5]];portConstraint=eastwest;" parent="RbxjqVqwLwfZ6pEtyOEy-212" vertex="1">
          <mxGeometry y="26" width="350" height="26" as="geometry" />
        </mxCell>
        <mxCell id="RbxjqVqwLwfZ6pEtyOEy-214" value="" style="line;html=1;strokeWidth=1;align=left;verticalAlign=middle;spacingTop=-1;spacingLeft=3;spacingRight=3;rotatable=0;labelPosition=right;points=[];portConstraint=eastwest;" parent="RbxjqVqwLwfZ6pEtyOEy-212" vertex="1">
          <mxGeometry y="52" width="350" height="8" as="geometry" />
        </mxCell>
        <mxCell id="RbxjqVqwLwfZ6pEtyOEy-215" value="+ OnEnter(enemyStateMachine : EnemyStateMachine) : void" style="text;align=left;verticalAlign=top;spacingLeft=4;spacingRight=4;overflow=hidden;rotatable=0;points=[[0,0.5],[1,0.5]];portConstraint=eastwest;" parent="RbxjqVqwLwfZ6pEtyOEy-212" vertex="1">
          <mxGeometry y="60" width="350" height="26" as="geometry" />
        </mxCell>
        <mxCell id="RbxjqVqwLwfZ6pEtyOEy-216" value="+ OnExit(enemyStateMachine : EnemyStateMachine) : void" style="text;align=left;verticalAlign=top;spacingLeft=4;spacingRight=4;overflow=hidden;rotatable=0;points=[[0,0.5],[1,0.5]];portConstraint=eastwest;" parent="RbxjqVqwLwfZ6pEtyOEy-212" vertex="1">
          <mxGeometry y="86" width="350" height="26" as="geometry" />
        </mxCell>
        <mxCell id="RbxjqVqwLwfZ6pEtyOEy-220" style="edgeStyle=orthogonalEdgeStyle;rounded=0;orthogonalLoop=1;jettySize=auto;html=1;endArrow=none;endFill=0;startArrow=block;startFill=0;entryX=-0.005;entryY=0.127;entryDx=0;entryDy=0;entryPerimeter=0;" parent="WIyWlLk6GJQsqaUBKTNV-1" target="RbxjqVqwLwfZ6pEtyOEy-181" edge="1">
          <mxGeometry relative="1" as="geometry">
            <mxPoint x="1470" y="520" as="targetPoint" />
            <Array as="points">
              <mxPoint x="1160" y="1120" />
              <mxPoint x="1240" y="1120" />
              <mxPoint x="1240" y="1359" />
            </Array>
            <mxPoint x="1160" y="1120" as="sourcePoint" />
          </mxGeometry>
        </mxCell>
        <mxCell id="RbxjqVqwLwfZ6pEtyOEy-221" style="edgeStyle=orthogonalEdgeStyle;rounded=0;orthogonalLoop=1;jettySize=auto;html=1;exitX=1;exitY=0.5;exitDx=0;exitDy=0;endArrow=none;endFill=0;entryX=0.003;entryY=0.861;entryDx=0;entryDy=0;entryPerimeter=0;" parent="WIyWlLk6GJQsqaUBKTNV-1" source="RbxjqVqwLwfZ6pEtyOEy-146" target="RbxjqVqwLwfZ6pEtyOEy-181" edge="1">
          <mxGeometry relative="1" as="geometry">
            <mxPoint x="1450" y="580" as="targetPoint" />
            <Array as="points">
              <mxPoint x="1105" y="1380" />
              <mxPoint x="1473" y="1380" />
            </Array>
          </mxGeometry>
        </mxCell>
        <mxCell id="VtZZ2VHJc7jR5-T_gqCY-14" value="Square" style="swimlane;fontStyle=0;align=center;verticalAlign=top;childLayout=stackLayout;horizontal=1;startSize=26;horizontalStack=0;resizeParent=1;resizeLast=0;collapsible=1;marginBottom=0;rounded=0;shadow=0;strokeWidth=1;" parent="WIyWlLk6GJQsqaUBKTNV-1" vertex="1">
          <mxGeometry x="860" y="490" width="280" height="216" as="geometry">
            <mxRectangle x="550" y="140" width="160" height="26" as="alternateBounds" />
          </mxGeometry>
        </mxCell>
        <mxCell id="VtZZ2VHJc7jR5-T_gqCY-15" value="+ Neighbors : List&lt;Square&gt;" style="text;align=left;verticalAlign=top;spacingLeft=4;spacingRight=4;overflow=hidden;rotatable=0;points=[[0,0.5],[1,0.5]];portConstraint=eastwest;" parent="VtZZ2VHJc7jR5-T_gqCY-14" vertex="1">
          <mxGeometry y="26" width="280" height="26" as="geometry" />
        </mxCell>
        <mxCell id="VtZZ2VHJc7jR5-T_gqCY-16" value="+ PreviousSquare : Square&#xa;" style="text;align=left;verticalAlign=top;spacingLeft=4;spacingRight=4;overflow=hidden;rotatable=0;points=[[0,0.5],[1,0.5]];portConstraint=eastwest;" parent="VtZZ2VHJc7jR5-T_gqCY-14" vertex="1">
          <mxGeometry y="52" width="280" height="26" as="geometry" />
        </mxCell>
        <mxCell id="VtZZ2VHJc7jR5-T_gqCY-17" value="+ F : float" style="text;align=left;verticalAlign=top;spacingLeft=4;spacingRight=4;overflow=hidden;rotatable=0;points=[[0,0.5],[1,0.5]];portConstraint=eastwest;" parent="VtZZ2VHJc7jR5-T_gqCY-14" vertex="1">
          <mxGeometry y="78" width="280" height="26" as="geometry" />
        </mxCell>
        <mxCell id="VtZZ2VHJc7jR5-T_gqCY-20" value="+ IsClosed : bool" style="text;align=left;verticalAlign=top;spacingLeft=4;spacingRight=4;overflow=hidden;rotatable=0;points=[[0,0.5],[1,0.5]];portConstraint=eastwest;" parent="VtZZ2VHJc7jR5-T_gqCY-14" vertex="1">
          <mxGeometry y="104" width="280" height="26" as="geometry" />
        </mxCell>
        <mxCell id="VtZZ2VHJc7jR5-T_gqCY-46" value="+ EntityOnThisSquare : Entity" style="text;align=left;verticalAlign=top;spacingLeft=4;spacingRight=4;overflow=hidden;rotatable=0;points=[[0,0.5],[1,0.5]];portConstraint=eastwest;" parent="VtZZ2VHJc7jR5-T_gqCY-14" vertex="1">
          <mxGeometry y="130" width="280" height="26" as="geometry" />
        </mxCell>
        <mxCell id="VtZZ2VHJc7jR5-T_gqCY-18" value="" style="line;html=1;strokeWidth=1;align=left;verticalAlign=middle;spacingTop=-1;spacingLeft=3;spacingRight=3;rotatable=0;labelPosition=right;points=[];portConstraint=eastwest;" parent="VtZZ2VHJc7jR5-T_gqCY-14" vertex="1">
          <mxGeometry y="156" width="280" height="8" as="geometry" />
        </mxCell>
        <mxCell id="VtZZ2VHJc7jR5-T_gqCY-19" value="+ DetecteNeighbors() : void&#xa;" style="text;align=left;verticalAlign=top;spacingLeft=4;spacingRight=4;overflow=hidden;rotatable=0;points=[[0,0.5],[1,0.5]];portConstraint=eastwest;" parent="VtZZ2VHJc7jR5-T_gqCY-14" vertex="1">
          <mxGeometry y="164" width="280" height="26" as="geometry" />
        </mxCell>
        <mxCell id="VtZZ2VHJc7jR5-T_gqCY-21" value="+ ResetSquare() : void&#xa;" style="text;align=left;verticalAlign=top;spacingLeft=4;spacingRight=4;overflow=hidden;rotatable=0;points=[[0,0.5],[1,0.5]];portConstraint=eastwest;" parent="VtZZ2VHJc7jR5-T_gqCY-14" vertex="1">
          <mxGeometry y="190" width="280" height="26" as="geometry" />
        </mxCell>
        <mxCell id="VtZZ2VHJc7jR5-T_gqCY-31" style="edgeStyle=orthogonalEdgeStyle;rounded=0;orthogonalLoop=1;jettySize=auto;html=1;exitX=0.5;exitY=0;exitDx=0;exitDy=0;entryX=0.5;entryY=1.003;entryDx=0;entryDy=0;entryPerimeter=0;endArrow=none;endFill=0;" parent="WIyWlLk6GJQsqaUBKTNV-1" source="RbxjqVqwLwfZ6pEtyOEy-89" target="VtZZ2VHJc7jR5-T_gqCY-21" edge="1">
          <mxGeometry relative="1" as="geometry">
            <Array as="points" />
          </mxGeometry>
        </mxCell>
        <mxCell id="VtZZ2VHJc7jR5-T_gqCY-38" value="GameManager" style="swimlane;fontStyle=0;align=center;verticalAlign=top;childLayout=stackLayout;horizontal=1;startSize=26;horizontalStack=0;resizeParent=1;resizeLast=0;collapsible=1;marginBottom=0;rounded=0;shadow=0;strokeWidth=1;" parent="WIyWlLk6GJQsqaUBKTNV-1" vertex="1">
          <mxGeometry x="885" y="220" width="230" height="216" as="geometry">
            <mxRectangle x="550" y="140" width="160" height="26" as="alternateBounds" />
          </mxGeometry>
        </mxCell>
        <mxCell id="ZqRjW3g99Fdt5QfIcLOO-4" value="+ EntitiesInGame : List&lt;Entity&gt;" style="text;align=left;verticalAlign=top;spacingLeft=4;spacingRight=4;overflow=hidden;rotatable=0;points=[[0,0.5],[1,0.5]];portConstraint=eastwest;" vertex="1" parent="VtZZ2VHJc7jR5-T_gqCY-38">
          <mxGeometry y="26" width="230" height="26" as="geometry" />
        </mxCell>
        <mxCell id="ZqRjW3g99Fdt5QfIcLOO-8" value="+ PlayableEntitiesInGame : List&lt;Entity&gt;" style="text;align=left;verticalAlign=top;spacingLeft=4;spacingRight=4;overflow=hidden;rotatable=0;points=[[0,0.5],[1,0.5]];portConstraint=eastwest;" vertex="1" parent="VtZZ2VHJc7jR5-T_gqCY-38">
          <mxGeometry y="52" width="230" height="26" as="geometry" />
        </mxCell>
        <mxCell id="ZqRjW3g99Fdt5QfIcLOO-5" value="+ EnemiesInGame : List&lt;Entity&gt;" style="text;align=left;verticalAlign=top;spacingLeft=4;spacingRight=4;overflow=hidden;rotatable=0;points=[[0,0.5],[1,0.5]];portConstraint=eastwest;" vertex="1" parent="VtZZ2VHJc7jR5-T_gqCY-38">
          <mxGeometry y="78" width="230" height="26" as="geometry" />
        </mxCell>
        <mxCell id="VtZZ2VHJc7jR5-T_gqCY-39" value="+ GameIsOver : bool" style="text;align=left;verticalAlign=top;spacingLeft=4;spacingRight=4;overflow=hidden;rotatable=0;points=[[0,0.5],[1,0.5]];portConstraint=eastwest;" parent="VtZZ2VHJc7jR5-T_gqCY-38" vertex="1">
          <mxGeometry y="104" width="230" height="26" as="geometry" />
        </mxCell>
        <mxCell id="VtZZ2VHJc7jR5-T_gqCY-40" value="+ GameIsOnPause : bool" style="text;align=left;verticalAlign=top;spacingLeft=4;spacingRight=4;overflow=hidden;rotatable=0;points=[[0,0.5],[1,0.5]];portConstraint=eastwest;" parent="VtZZ2VHJc7jR5-T_gqCY-38" vertex="1">
          <mxGeometry y="130" width="230" height="26" as="geometry" />
        </mxCell>
        <mxCell id="VtZZ2VHJc7jR5-T_gqCY-41" value="" style="line;html=1;strokeWidth=1;align=left;verticalAlign=middle;spacingTop=-1;spacingLeft=3;spacingRight=3;rotatable=0;labelPosition=right;points=[];portConstraint=eastwest;" parent="VtZZ2VHJc7jR5-T_gqCY-38" vertex="1">
          <mxGeometry y="156" width="230" height="8" as="geometry" />
        </mxCell>
        <mxCell id="VtZZ2VHJc7jR5-T_gqCY-42" value="+ GameOver() : void" style="text;align=left;verticalAlign=top;spacingLeft=4;spacingRight=4;overflow=hidden;rotatable=0;points=[[0,0.5],[1,0.5]];portConstraint=eastwest;" parent="VtZZ2VHJc7jR5-T_gqCY-38" vertex="1">
          <mxGeometry y="164" width="230" height="26" as="geometry" />
        </mxCell>
        <mxCell id="VtZZ2VHJc7jR5-T_gqCY-44" value="+ GamePause() : void" style="text;align=left;verticalAlign=top;spacingLeft=4;spacingRight=4;overflow=hidden;rotatable=0;points=[[0,0.5],[1,0.5]];portConstraint=eastwest;" parent="VtZZ2VHJc7jR5-T_gqCY-38" vertex="1">
          <mxGeometry y="190" width="230" height="26" as="geometry" />
        </mxCell>
        <mxCell id="ZqRjW3g99Fdt5QfIcLOO-18" style="edgeStyle=orthogonalEdgeStyle;rounded=0;orthogonalLoop=1;jettySize=auto;html=1;exitX=0;exitY=0.5;exitDx=0;exitDy=0;entryX=0;entryY=0.5;entryDx=0;entryDy=0;endArrow=none;endFill=0;" edge="1" parent="WIyWlLk6GJQsqaUBKTNV-1" source="ZqRjW3g99Fdt5QfIcLOO-12" target="RbxjqVqwLwfZ6pEtyOEy-107">
          <mxGeometry relative="1" as="geometry">
            <mxPoint x="780" y="1550" as="targetPoint" />
          </mxGeometry>
        </mxCell>
        <mxCell id="ZqRjW3g99Fdt5QfIcLOO-19" style="edgeStyle=orthogonalEdgeStyle;rounded=0;orthogonalLoop=1;jettySize=auto;html=1;exitX=1;exitY=0.5;exitDx=0;exitDy=0;entryX=1;entryY=0.5;entryDx=0;entryDy=0;endArrow=none;endFill=0;" edge="1" parent="WIyWlLk6GJQsqaUBKTNV-1" source="ZqRjW3g99Fdt5QfIcLOO-12" target="RbxjqVqwLwfZ6pEtyOEy-222">
          <mxGeometry relative="1" as="geometry" />
        </mxCell>
        <mxCell id="ZqRjW3g99Fdt5QfIcLOO-21" value="Battle" style="swimlane;whiteSpace=wrap;html=1;fillColor=#e1d5e7;strokeColor=#9673a6;rounded=1;" vertex="1" parent="WIyWlLk6GJQsqaUBKTNV-1">
          <mxGeometry x="800" y="2270" width="400" height="520" as="geometry" />
        </mxCell>
        <mxCell id="VtZZ2VHJc7jR5-T_gqCY-33" value="BattleManager" style="swimlane;fontStyle=0;align=center;verticalAlign=top;childLayout=stackLayout;horizontal=1;startSize=26;horizontalStack=0;resizeParent=1;resizeLast=0;collapsible=1;marginBottom=0;rounded=0;shadow=0;strokeWidth=1;" parent="ZqRjW3g99Fdt5QfIcLOO-21" vertex="1">
          <mxGeometry x="85" y="40" width="230" height="242" as="geometry">
            <mxRectangle x="550" y="140" width="160" height="26" as="alternateBounds" />
          </mxGeometry>
        </mxCell>
        <mxCell id="ZqRjW3g99Fdt5QfIcLOO-6" value="+ PlayableEntitiesInBattle : List&lt;Entity&gt;" style="text;align=left;verticalAlign=top;spacingLeft=4;spacingRight=4;overflow=hidden;rotatable=0;points=[[0,0.5],[1,0.5]];portConstraint=eastwest;" vertex="1" parent="VtZZ2VHJc7jR5-T_gqCY-33">
          <mxGeometry y="26" width="230" height="26" as="geometry" />
        </mxCell>
        <mxCell id="ZqRjW3g99Fdt5QfIcLOO-7" value="+ EnnemiesInBattle : List&lt;Entity&gt;" style="text;align=left;verticalAlign=top;spacingLeft=4;spacingRight=4;overflow=hidden;rotatable=0;points=[[0,0.5],[1,0.5]];portConstraint=eastwest;" vertex="1" parent="VtZZ2VHJc7jR5-T_gqCY-33">
          <mxGeometry y="52" width="230" height="26" as="geometry" />
        </mxCell>
        <mxCell id="ZqRjW3g99Fdt5QfIcLOO-12" value="+ EntitiesInActionOrder : List&lt;Entity&gt;" style="text;align=left;verticalAlign=top;spacingLeft=4;spacingRight=4;overflow=hidden;rotatable=0;points=[[0,0.5],[1,0.5]];portConstraint=eastwest;" vertex="1" parent="VtZZ2VHJc7jR5-T_gqCY-33">
          <mxGeometry y="78" width="230" height="26" as="geometry" />
        </mxCell>
        <mxCell id="VtZZ2VHJc7jR5-T_gqCY-34" value="+ EnnemiesSquares : List&lt;Square&gt;" style="text;align=left;verticalAlign=top;spacingLeft=4;spacingRight=4;overflow=hidden;rotatable=0;points=[[0,0.5],[1,0.5]];portConstraint=eastwest;" parent="VtZZ2VHJc7jR5-T_gqCY-33" vertex="1">
          <mxGeometry y="104" width="230" height="26" as="geometry" />
        </mxCell>
        <mxCell id="VtZZ2VHJc7jR5-T_gqCY-35" value="+ PlayerSquares : List&lt;Square&gt;" style="text;align=left;verticalAlign=top;spacingLeft=4;spacingRight=4;overflow=hidden;rotatable=0;points=[[0,0.5],[1,0.5]];portConstraint=eastwest;" parent="VtZZ2VHJc7jR5-T_gqCY-33" vertex="1">
          <mxGeometry y="130" width="230" height="26" as="geometry" />
        </mxCell>
        <mxCell id="VtZZ2VHJc7jR5-T_gqCY-36" value="" style="line;html=1;strokeWidth=1;align=left;verticalAlign=middle;spacingTop=-1;spacingLeft=3;spacingRight=3;rotatable=0;labelPosition=right;points=[];portConstraint=eastwest;" parent="VtZZ2VHJc7jR5-T_gqCY-33" vertex="1">
          <mxGeometry y="156" width="230" height="8" as="geometry" />
        </mxCell>
        <mxCell id="VtZZ2VHJc7jR5-T_gqCY-37" value="+ InitBattle() : IEnumerator" style="text;align=left;verticalAlign=top;spacingLeft=4;spacingRight=4;overflow=hidden;rotatable=0;points=[[0,0.5],[1,0.5]];portConstraint=eastwest;" parent="VtZZ2VHJc7jR5-T_gqCY-33" vertex="1">
          <mxGeometry y="164" width="230" height="26" as="geometry" />
        </mxCell>
        <mxCell id="VtZZ2VHJc7jR5-T_gqCY-45" value="- NewBattleTurn() : IEnumerator" style="text;align=left;verticalAlign=top;spacingLeft=4;spacingRight=4;overflow=hidden;rotatable=0;points=[[0,0.5],[1,0.5]];portConstraint=eastwest;" parent="VtZZ2VHJc7jR5-T_gqCY-33" vertex="1">
          <mxGeometry y="190" width="230" height="26" as="geometry" />
        </mxCell>
        <mxCell id="ZqRjW3g99Fdt5QfIcLOO-14" value="+ NextEntityTurn() : void" style="text;align=left;verticalAlign=top;spacingLeft=4;spacingRight=4;overflow=hidden;rotatable=0;points=[[0,0.5],[1,0.5]];portConstraint=eastwest;" vertex="1" parent="VtZZ2VHJc7jR5-T_gqCY-33">
          <mxGeometry y="216" width="230" height="26" as="geometry" />
        </mxCell>
        <mxCell id="VtZZ2VHJc7jR5-T_gqCY-47" value="BattleSteps" style="swimlane;fontStyle=0;align=center;verticalAlign=top;childLayout=stackLayout;horizontal=1;startSize=26;horizontalStack=0;resizeParent=1;resizeLast=0;collapsible=1;marginBottom=0;rounded=0;shadow=0;strokeWidth=1;" parent="ZqRjW3g99Fdt5QfIcLOO-21" vertex="1">
          <mxGeometry x="20" y="320" width="360" height="140" as="geometry">
            <mxRectangle x="550" y="140" width="160" height="26" as="alternateBounds" />
          </mxGeometry>
        </mxCell>
        <mxCell id="VtZZ2VHJc7jR5-T_gqCY-52" value="+ PlacePlayers() : void" style="text;align=left;verticalAlign=top;spacingLeft=4;spacingRight=4;overflow=hidden;rotatable=0;points=[[0,0.5],[1,0.5]];portConstraint=eastwest;" parent="VtZZ2VHJc7jR5-T_gqCY-47" vertex="1">
          <mxGeometry y="26" width="360" height="26" as="geometry" />
        </mxCell>
        <mxCell id="ZqRjW3g99Fdt5QfIcLOO-9" value="+ PlaceEnnemies() : void" style="text;align=left;verticalAlign=top;spacingLeft=4;spacingRight=4;overflow=hidden;rotatable=0;points=[[0,0.5],[1,0.5]];portConstraint=eastwest;" vertex="1" parent="VtZZ2VHJc7jR5-T_gqCY-47">
          <mxGeometry y="52" width="360" height="26" as="geometry" />
        </mxCell>
        <mxCell id="ZqRjW3g99Fdt5QfIcLOO-3" value="- InitEntities(entities : List&lt;Entity&gt;) : void" style="text;align=left;verticalAlign=top;spacingLeft=4;spacingRight=4;overflow=hidden;rotatable=0;points=[[0,0.5],[1,0.5]];portConstraint=eastwest;" vertex="1" parent="VtZZ2VHJc7jR5-T_gqCY-47">
          <mxGeometry y="78" width="360" height="26" as="geometry" />
        </mxCell>
        <mxCell id="ZqRjW3g99Fdt5QfIcLOO-11" value="+ DeterminesOrder(entitiesInBattle : List&lt;Entity&gt;) : List&lt;Entity&gt;" style="text;align=left;verticalAlign=top;spacingLeft=4;spacingRight=4;overflow=hidden;rotatable=0;points=[[0,0.5],[1,0.5]];portConstraint=eastwest;" vertex="1" parent="VtZZ2VHJc7jR5-T_gqCY-47">
          <mxGeometry y="104" width="360" height="26" as="geometry" />
        </mxCell>
        <mxCell id="ZqRjW3g99Fdt5QfIcLOO-20" style="edgeStyle=orthogonalEdgeStyle;rounded=0;orthogonalLoop=1;jettySize=auto;html=1;exitX=0.5;exitY=0;exitDx=0;exitDy=0;entryX=0.494;entryY=1.036;entryDx=0;entryDy=0;entryPerimeter=0;endArrow=none;endFill=0;" edge="1" parent="ZqRjW3g99Fdt5QfIcLOO-21" source="VtZZ2VHJc7jR5-T_gqCY-47" target="ZqRjW3g99Fdt5QfIcLOO-14">
          <mxGeometry relative="1" as="geometry" />
        </mxCell>
        <mxCell id="ZqRjW3g99Fdt5QfIcLOO-25" style="edgeStyle=orthogonalEdgeStyle;rounded=0;orthogonalLoop=1;jettySize=auto;html=1;exitX=1;exitY=0.5;exitDx=0;exitDy=0;entryX=0.003;entryY=0.615;entryDx=0;entryDy=0;endArrow=none;endFill=0;entryPerimeter=0;" edge="1" parent="WIyWlLk6GJQsqaUBKTNV-1" source="ZqRjW3g99Fdt5QfIcLOO-22" target="RbxjqVqwLwfZ6pEtyOEy-144">
          <mxGeometry relative="1" as="geometry">
            <Array as="points">
              <mxPoint x="896" y="1355" />
            </Array>
          </mxGeometry>
        </mxCell>
      </root>
    </mxGraphModel>
  </diagram>
</mxfile>
